<svg width="33" height="32" viewBox="0 0 33 32" fill="none" xmlns="http://www.w3.org/2000/svg">
<path d="M15.1185 6.24V11.4133C15.1185 11.8417 15.0313 12.2658 14.8618 12.6614C14.6924 13.057 14.444 13.4162 14.131 13.7185C13.818 14.0208 13.4466 14.2602 13.0379 14.4229C12.6293 14.5856 12.1915 14.6684 11.7498 14.6667H6.44229C6.00174 14.6693 5.56519 14.5856 5.1588 14.4206C4.75241 14.2556 4.38456 14.0128 4.07729 13.7067C3.76594 13.4062 3.5193 13.0488 3.35171 12.6551C3.18411 12.2613 3.0989 11.8393 3.10104 11.4133V6.25333C3.10103 5.3928 3.45262 4.56732 4.07883 3.95758C4.70504 3.34784 5.55487 3.00353 6.44229 3H11.7635C12.2036 3.00041 12.6393 3.08547 13.0452 3.25026C13.4512 3.41504 13.8194 3.65628 14.1285 3.96C14.442 4.25686 14.691 4.61149 14.861 5.00304C15.031 5.39459 15.1186 5.81516 15.1185 6.24ZM29.8998 6.25333V11.4133C29.8927 12.2717 29.5388 13.0932 28.9141 13.7015C28.2894 14.3097 27.4437 14.6562 26.5585 14.6667H21.2235C20.3342 14.6614 19.4816 14.3221 18.8448 13.72C18.5336 13.4167 18.2873 13.0568 18.1197 12.661C17.9522 12.2651 17.8669 11.8412 17.8685 11.4133V6.25333C17.8666 5.82625 17.9533 5.40315 18.1234 5.00918C18.2935 4.61522 18.5435 4.25842 18.8585 3.96C19.1677 3.65628 19.5359 3.41504 19.9419 3.25026C20.3478 3.08547 20.7834 3.00041 21.2235 3H26.5448C27.4324 3.00697 28.2815 3.35197 28.9092 3.96058C29.5368 4.5692 29.8926 5.39265 29.8998 6.25333ZM29.8998 20.5867V25.7467C29.8927 26.6051 29.5388 27.4265 28.9141 28.0348C28.2894 28.643 27.4437 28.9896 26.5585 29H21.2235C20.3285 29.0088 19.4653 28.6788 18.8173 28.08C18.5049 27.7775 18.2577 27.4178 18.0901 27.0218C17.9225 26.6258 17.8378 26.2014 17.841 25.7733V20.6133C17.8392 20.1863 17.9259 19.7632 18.096 19.3692C18.2661 18.9753 18.516 18.6185 18.831 18.32C19.1402 18.0163 19.5085 17.7751 19.9144 17.6104C20.3204 17.4456 20.756 17.3605 21.196 17.36H26.5173C27.4049 17.367 28.254 17.712 28.8817 18.3206C29.5093 18.9292 29.8651 19.7527 29.8723 20.6133L29.8998 20.5867ZM15.1185 20.6V25.76C15.1077 26.6207 14.7485 27.4427 14.1183 28.0488C13.488 28.6549 12.6374 28.9966 11.7498 29H6.44229C6.003 29.0018 5.5677 28.9192 5.1615 28.757C4.7553 28.5948 4.38624 28.3562 4.07561 28.055C3.76499 27.7538 3.51894 27.3959 3.35167 27.002C3.1844 26.6081 3.09922 26.186 3.10104 25.76V20.6C3.10458 19.7393 3.45688 18.9144 4.08194 18.3033C4.707 17.6922 5.55474 17.3438 6.44229 17.3333H11.7635C12.6551 17.3408 13.5085 17.6852 14.1423 18.2933C14.7694 18.9068 15.1204 19.7362 15.1185 20.6Z" fill="#FAC1D9"/>
</svg>
