<svg width="40" height="41" viewBox="0 0 40 41" fill="none" xmlns="http://www.w3.org/2000/svg">
<path opacity="0.962" fill-rule="evenodd" clip-rule="evenodd" d="M21.8408 1.64062C22.2022 1.64062 22.5636 1.64062 22.925 1.64062C28.6555 2.36032 33.0887 5.13105 36.2246 9.95284C35.4862 10.4368 34.7273 10.8946 33.9477 11.3262C31.1162 6.95146 27.0806 4.5903 21.8408 4.24271C21.8408 3.37535 21.8408 2.50799 21.8408 1.64062Z" fill="#333333"/>
<path opacity="0.96" fill-rule="evenodd" clip-rule="evenodd" d="M18.8778 3.52051C19.0464 3.52051 19.2151 3.52051 19.3837 3.52051C19.3837 4.41196 19.3837 5.30342 19.3837 6.19487C14.1777 6.508 10.1541 8.83301 7.31296 13.1699C7.24068 13.2181 7.1684 13.2181 7.09612 13.1699C6.38319 12.7535 5.68449 12.3198 5 11.8689C8.26457 6.85035 12.8905 4.06757 18.8778 3.52051Z" fill="#333333"/>
<path opacity="0.958" fill-rule="evenodd" clip-rule="evenodd" d="M21.8414 4.89343C26.8236 5.23886 30.6786 7.47954 33.4062 11.6155C29.5837 13.8825 25.7407 16.1232 21.8775 18.3375C21.8414 13.8562 21.8293 9.37487 21.8414 4.89343ZM23.3593 5.97763C23.565 5.94366 23.7336 6.0039 23.8652 6.15833C23.6423 6.55889 23.305 6.72754 22.8533 6.66429C22.7798 6.58843 22.7677 6.50411 22.8172 6.41131C22.97 6.22188 23.1507 6.07732 23.3593 5.97763ZM25.3108 6.91727C26.2496 6.87954 26.623 7.31322 26.4312 8.21831C26.0713 8.75973 25.6015 8.86815 25.0217 8.54357C24.4902 7.88805 24.5866 7.34595 25.3108 6.91727ZM23.8652 9.51935C24.5838 9.5208 25.2222 9.73764 25.7806 10.1699C25.7624 10.5853 25.5335 10.8022 25.094 10.8204C24.6589 10.5991 24.2012 10.4424 23.7207 10.3506C23.4048 10.2076 23.3567 10.0028 23.5761 9.73619C23.6774 9.6624 23.7738 9.59012 23.8652 9.51935ZM28.3466 9.66391C28.9701 9.69702 29.3315 10.0223 29.4308 10.6397C29.2826 11.3037 28.873 11.5929 28.202 11.5071C27.626 11.2252 27.4453 10.7795 27.6599 10.1699C27.8427 9.92521 28.0716 9.75658 28.3466 9.66391ZM30.7318 10.7481C30.8311 10.7368 30.9275 10.7488 31.0209 10.7843C30.7573 10.9685 30.4682 11.0648 30.1536 11.0734C30.3414 10.9436 30.5342 10.8352 30.7318 10.7481ZM23.7929 12.1214C24.8095 12.0663 25.4119 12.5361 25.5999 13.5309C25.3225 14.7297 24.5997 15.1393 23.4315 14.7597C22.612 14.107 22.5156 13.36 23.1424 12.519C23.3421 12.3474 23.559 12.2148 23.7929 12.1214ZM26.8287 12.1214C26.9456 12.1603 27.0661 12.1844 27.1901 12.1937C27.1208 12.6121 26.8678 12.8531 26.4312 12.9165C26.0932 12.8559 26.033 12.6993 26.2505 12.4467C26.4383 12.317 26.6311 12.2085 26.8287 12.1214Z" fill="#333333"/>
<path opacity="0.96" fill-rule="evenodd" clip-rule="evenodd" d="M18.4435 6.84473C18.7567 6.84473 19.07 6.84473 19.3832 6.84473C19.3832 11.302 19.3832 15.7593 19.3832 20.2165C15.4856 18.075 11.6307 15.8584 7.81836 13.5668C10.3209 9.70044 13.8626 7.45977 18.4435 6.84473ZM16.9979 8.79629C17.8146 8.95914 18.0916 9.44103 17.8292 10.2419C17.3022 10.8194 16.7721 10.8194 16.239 10.2419C15.9807 9.48129 16.2336 8.99947 16.9979 8.79629ZM11.9383 11.1093C13.0908 11.0691 13.6569 11.6232 13.6369 12.7717C13.2397 13.8762 12.5049 14.1774 11.4324 13.6752C10.6614 12.9042 10.6614 12.1332 11.4324 11.3622C11.6076 11.2746 11.7763 11.1903 11.9383 11.1093ZM16.0583 11.8321C16.7249 11.7868 17.267 12.0277 17.6846 12.5549C17.7283 12.8503 17.5957 13.031 17.2871 13.097C17.0943 13.1452 16.9016 13.1452 16.7088 13.097C16.4444 12.8211 16.1312 12.6163 15.7692 12.4826C15.6874 12.3688 15.6754 12.2483 15.733 12.1212C15.834 12.0077 15.9424 11.9113 16.0583 11.8321ZM16.4197 14.7233C17.3888 14.8301 17.6899 15.3361 17.3232 16.2411C16.7933 16.7432 16.2873 16.7191 15.8053 16.1689C15.5186 15.4664 15.7233 14.9845 16.4197 14.7233Z" fill="#333333"/>
<path opacity="0.965" fill-rule="evenodd" clip-rule="evenodd" d="M4.34966 12.9893C5.1462 13.3877 5.91719 13.8334 6.66263 14.3264C4.63156 18.4583 4.47496 22.6627 6.19281 26.9393C6.38838 27.3425 6.59317 27.74 6.80719 28.1319C6.08421 28.6141 5.33731 29.0598 4.56651 29.4691C4.33256 29.2191 4.15186 28.93 4.0244 28.6018C2.07292 24.1497 1.88018 19.6202 3.44616 15.0131C3.72678 14.3273 4.02794 13.6527 4.34966 12.9893Z" fill="#333333"/>
<path opacity="0.965" fill-rule="evenodd" clip-rule="evenodd" d="M35.4302 12.9892C35.5021 12.983 35.5624 13.0072 35.6109 13.0615C37.6422 17.1606 38.0759 21.4251 36.9119 25.8551C36.5747 27.0595 36.1169 28.216 35.5386 29.3245C35.4888 29.3865 35.4286 29.4346 35.3579 29.4691C34.5871 29.0598 33.8402 28.614 33.1172 28.1319C35.203 24.1501 35.48 20.0421 33.9484 15.8082C33.7472 15.3008 33.5183 14.8068 33.2617 14.3264C33.997 13.8906 34.7198 13.4448 35.4302 12.9892Z" fill="#333333"/>
<path opacity="0.962" fill-rule="evenodd" clip-rule="evenodd" d="M7.16836 14.6514C11.0312 16.86 14.8861 19.0887 18.7332 21.3373C14.9505 23.5178 11.1678 25.6982 7.3852 27.8786C5.39666 24.0773 5.11958 20.15 6.55398 16.097C6.73975 15.6052 6.94455 15.1234 7.16836 14.6514ZM8.32485 16.6752C9.37052 16.7207 9.69578 17.2266 9.30063 18.1931C8.92571 18.5813 8.50406 18.6415 8.03573 18.3738C7.70418 18.0682 7.59576 17.6948 7.71047 17.2535C7.86036 16.9949 8.06516 16.8021 8.32485 16.6752ZM9.98729 20.2169C11.1415 20.42 11.5872 21.0946 11.3245 22.2408C10.5924 23.2911 9.7732 23.3634 8.86695 22.4576C8.39418 21.2829 8.76763 20.5361 9.98729 20.2169ZM14.1073 20.2169C15.0692 20.4421 15.3101 20.9842 14.8301 21.8432C14.3305 22.204 13.8607 22.1678 13.4206 21.7348C13.0716 20.962 13.3004 20.456 14.1073 20.2169ZM7.0238 20.2892C7.63768 20.2469 7.68587 20.3795 7.16836 20.6868C6.95929 20.7698 6.74245 20.8059 6.51784 20.7952C6.50201 20.7102 6.5261 20.638 6.59012 20.5783C6.73941 20.4803 6.88397 20.3839 7.0238 20.2892ZM9.11993 24.0478C9.72007 24.1019 9.76828 24.2826 9.26449 24.5899C8.81498 24.796 8.34519 24.9284 7.85503 24.9874C7.33807 24.8972 7.32603 24.7407 7.81889 24.5176C8.26795 24.3802 8.70163 24.2236 9.11993 24.0478Z" fill="#333333"/>
<path opacity="0.961" fill-rule="evenodd" clip-rule="evenodd" d="M32.6109 14.6512C32.8422 14.8945 33.0229 15.1837 33.153 15.5186C34.6171 19.1717 34.6411 22.8339 33.2253 26.5052C33.0346 26.9831 32.8056 27.4409 32.5386 27.8785C28.756 25.698 24.9733 23.5176 21.1907 21.3372C25.0097 19.1184 28.8164 16.8898 32.6109 14.6512ZM32.0327 17.0365C32.6778 17.068 32.6778 17.2005 32.0327 17.434C31.8591 17.4929 31.6904 17.4808 31.5267 17.3979C31.6848 17.259 31.8534 17.1385 32.0327 17.0365ZM31.093 19.2049C32.2424 19.1701 32.8086 19.7243 32.7916 20.8673C32.4702 21.8533 31.8076 22.2027 30.8039 21.9154C30.0597 21.466 29.8309 20.8275 30.1173 20C30.3495 19.6102 30.6748 19.3452 31.093 19.2049ZM25.9612 20.3614C26.8999 20.3236 27.2733 20.7573 27.0815 21.6624C26.8173 22.1373 26.4198 22.2939 25.8889 22.1322C25.3024 21.7905 25.1699 21.3207 25.4913 20.7228C25.6334 20.5746 25.79 20.4541 25.9612 20.3614ZM28.6355 20.3614C28.7348 20.35 28.8312 20.3621 28.9246 20.3975C28.6709 20.6106 28.3817 20.7069 28.0573 20.6866C28.2518 20.5706 28.4446 20.4622 28.6355 20.3614ZM28.7801 22.7466C29.2129 22.7825 29.261 22.9392 28.9246 23.2164C28.6566 23.3705 28.3675 23.4307 28.0573 23.3971C28.0495 23.2234 28.1218 23.091 28.2741 22.9996C28.4341 22.8828 28.6028 22.7984 28.7801 22.7466ZM30.8039 23.9754C31.6528 24.1137 31.954 24.5956 31.7074 25.421C31.1743 25.9985 30.6443 25.9985 30.1173 25.421C29.8654 24.6964 30.0942 24.2145 30.8039 23.9754Z" fill="#333333"/>
<path opacity="0.959" fill-rule="evenodd" clip-rule="evenodd" d="M19.2396 22.3848C19.3838 26.6968 19.432 31.0336 19.3841 35.3952C14.541 35.0951 10.7583 32.9628 8.03613 28.9984C8.09685 28.8707 8.19323 28.7743 8.32525 28.7093C11.9915 26.6357 15.6297 24.5275 19.2396 22.3848ZM16.8543 25.9265C17.6991 25.9639 18.0484 26.3976 17.9024 27.2275C17.5591 27.815 17.0893 27.9475 16.4929 27.6251C15.9247 26.9026 16.0451 26.3365 16.8543 25.9265ZM14.3245 28.2395C14.5339 28.2124 14.7266 28.2485 14.9027 28.3479C14.6602 28.7704 14.2988 28.939 13.8185 28.8538C13.7498 28.8019 13.7378 28.7417 13.7824 28.6731C13.9352 28.4837 14.1159 28.3391 14.3245 28.2395ZM10.7105 28.384C11.7526 28.3768 12.1019 28.8587 11.7586 29.8296C11.2526 30.4079 10.7466 30.4079 10.2407 29.8296C9.94223 29.195 10.0989 28.7131 10.7105 28.384ZM14.975 29.4682C16.0427 29.5599 16.5608 30.1382 16.529 31.2029C16.1326 32.2348 15.4219 32.536 14.3968 32.1064C13.6949 31.5401 13.5625 30.8534 13.9992 30.0465C14.2809 29.7675 14.6062 29.5748 14.975 29.4682ZM17.5771 33.7327C17.7631 33.7073 17.9317 33.7434 18.0831 33.8412C17.7791 34.2122 17.4177 34.3206 16.9989 34.1664C17.1705 33.9852 17.3632 33.8407 17.5771 33.7327Z" fill="#333333"/>
<path opacity="0.962" fill-rule="evenodd" clip-rule="evenodd" d="M20.54 22.3848C24.2223 24.4912 27.9086 26.5994 31.5989 28.7093C31.731 28.7743 31.8273 28.8707 31.888 28.9984C29.1658 32.9628 25.3832 35.0951 20.54 35.3952C20.54 31.0584 20.54 26.7216 20.54 22.3848ZM22.9976 26.4325C24.4581 26.4877 24.9762 27.2105 24.5516 28.6009C23.8229 29.4048 23.052 29.453 22.2386 28.7454C21.6903 27.7039 21.9433 26.933 22.9976 26.4325ZM28.2017 28.5286C28.8759 28.4794 29.2854 28.7805 29.4305 29.4321C29.2509 30.2685 28.7691 30.5336 27.9849 30.2272C27.3582 29.5664 27.4305 29.0003 28.2017 28.5286ZM25.5274 30.9861C25.6034 30.9753 25.6757 30.9873 25.7442 31.0222C25.4315 31.2275 25.0941 31.348 24.7323 31.3836C24.9845 31.2093 25.2496 31.0768 25.5274 30.9861ZM22.4916 31.4198C23.4477 31.4942 23.7729 31.976 23.4674 32.8654C23.0927 33.3274 22.647 33.4117 22.1302 33.1184C21.562 32.3959 21.6824 31.8298 22.4916 31.4198Z" fill="#333333"/>
<path opacity="0.961" fill-rule="evenodd" clip-rule="evenodd" d="M19.3837 38.6483C18.9982 38.6483 18.6126 38.6483 18.2272 38.6483C12.6112 37.9498 8.25029 35.2513 5.14448 30.5529C5.84319 30.1313 6.54189 29.7096 7.2406 29.288C7.31288 29.2398 7.38516 29.2398 7.45744 29.288C10.3297 33.4477 14.3051 35.7005 19.3837 36.0462C19.3837 36.9135 19.3837 37.7809 19.3837 38.6483Z" fill="#333333"/>
<path opacity="0.961" fill-rule="evenodd" clip-rule="evenodd" d="M21.6966 38.6483C21.3112 38.6483 20.9256 38.6483 20.5401 38.6483C20.5401 37.7809 20.5401 36.9135 20.5401 36.0462C25.6187 35.7005 29.5941 33.4477 32.4664 29.288C32.5386 29.2398 32.6109 29.2398 32.6832 29.288C33.3819 29.7096 34.0806 30.1313 34.7793 30.5529C31.6735 35.2513 27.3126 37.9498 21.6966 38.6483Z" fill="#333333"/>
</svg>
