<svg width="16" height="16" viewBox="0 0 16 16" fill="none" xmlns="http://www.w3.org/2000/svg">
<g id="mage:dashboard-fill">
<path id="Vector" d="M7.33059 3.12V5.70667C7.33059 5.92085 7.2883 6.13292 7.20613 6.33071C7.12397 6.5285 7.00355 6.70812 6.8518 6.85926C6.70004 7.0104 6.51993 7.13008 6.3218 7.21143C6.12368 7.29278 5.91144 7.33421 5.69726 7.33333H3.12393C2.91033 7.33463 2.69866 7.29278 2.50163 7.2103C2.30459 7.12782 2.12624 7.00641 1.97726 6.85333C1.8263 6.70311 1.70672 6.52438 1.62546 6.32753C1.5442 6.13067 1.50289 5.91963 1.50393 5.70667V3.12667C1.50392 2.6964 1.67439 2.28366 1.97801 1.97879C2.28162 1.67392 2.69366 1.50176 3.12393 1.5H5.70393C5.9173 1.50021 6.12852 1.54274 6.32534 1.62513C6.52217 1.70752 6.7007 1.82814 6.85059 1.98C7.00255 2.12843 7.1233 2.30575 7.20573 2.50152C7.28816 2.6973 7.33062 2.90758 7.33059 3.12ZM14.4973 3.12667V5.70667C14.4938 6.13587 14.3222 6.5466 14.0193 6.85073C13.7165 7.15485 13.3064 7.32811 12.8773 7.33333H10.2906C9.85939 7.3307 9.446 7.16104 9.13726 6.86C8.9864 6.70833 8.86694 6.52838 8.78572 6.33048C8.7045 6.13257 8.66311 5.92059 8.66392 5.70667V3.12667C8.66301 2.91312 8.70503 2.70158 8.78749 2.50459C8.86995 2.30761 8.99116 2.12921 9.14392 1.98C9.29382 1.82814 9.47234 1.70752 9.66917 1.62513C9.866 1.54274 10.0772 1.50021 10.2906 1.5H12.8706C13.3009 1.50348 13.7127 1.67598 14.017 1.98029C14.3213 2.2846 14.4938 2.69633 14.4973 3.12667ZM14.4973 10.2933V12.8733C14.4938 13.3025 14.3222 13.7133 14.0193 14.0174C13.7165 14.3215 13.3064 14.4948 12.8773 14.5H10.2906C9.85665 14.5044 9.4381 14.3394 9.12393 14.04C8.97247 13.8888 8.85262 13.7089 8.77135 13.5109C8.69009 13.3129 8.64904 13.1007 8.65059 12.8867V10.3067C8.64971 10.0931 8.69175 9.88159 8.77421 9.68462C8.85666 9.48764 8.97786 9.30924 9.13059 9.16C9.28051 9.00817 9.45904 8.88757 9.65586 8.80518C9.85268 8.72279 10.0639 8.68024 10.2773 8.68H12.8573C13.2876 8.68349 13.6993 8.85598 14.0036 9.16029C14.3079 9.4646 14.4804 9.87633 14.4839 10.3067L14.4973 10.2933ZM7.33059 10.3V12.88C7.32535 13.3103 7.15116 13.7214 6.84561 14.0244C6.54005 14.3275 6.12761 14.4983 5.69726 14.5H3.12393C2.91094 14.5009 2.69988 14.4596 2.50294 14.3785C2.30599 14.2974 2.12705 14.1781 1.97645 14.0275C1.82584 13.8769 1.70654 13.6979 1.62544 13.501C1.54434 13.304 1.50304 13.093 1.50393 12.88V10.3C1.50564 9.86964 1.67645 9.45721 1.97951 9.15165C2.28257 8.8461 2.6936 8.67191 3.12393 8.66667H5.70393C6.1362 8.67039 6.54998 8.8426 6.85726 9.14667C7.16132 9.45341 7.33151 9.8681 7.33059 10.3Z" fill="#FAC1D9"/>
</g>
</svg>
