<svg width="25" height="24" viewBox="0 0 25 24" fill="none" xmlns="http://www.w3.org/2000/svg">
<g id="menu (22) 1">
<g id="Group">
<path id="Vector" opacity="0.981" fill-rule="evenodd" clip-rule="evenodd" d="M4.58664 4.76022C9.55543 4.7538 14.5242 4.76022 19.4929 4.77943C20.3349 5.01341 20.6239 5.48081 20.3601 6.18158C20.1807 6.48229 19.8916 6.66795 19.4929 6.7386C14.5241 6.76422 9.55539 6.76422 4.58664 6.7386C3.74463 6.50461 3.45557 6.03721 3.71945 5.33644C3.90669 5.03519 4.19575 4.84312 4.58664 4.76022Z" fill="white"/>
</g>
<g id="Group_2">
<path id="Vector_2" opacity="0.981" fill-rule="evenodd" clip-rule="evenodd" d="M4.58664 10.7602C9.55543 10.7538 14.5242 10.7602 19.4929 10.7794C20.3349 11.0134 20.6239 11.4808 20.3601 12.1816C20.1807 12.4823 19.8916 12.668 19.4929 12.7386C14.5241 12.7642 9.55539 12.7642 4.58664 12.7386C3.74463 12.5046 3.45557 12.0372 3.71945 11.3364C3.90669 11.0352 4.19575 10.8431 4.58664 10.7602Z" fill="white"/>
</g>
<g id="Group_3">
<path id="Vector_3" opacity="0.978" fill-rule="evenodd" clip-rule="evenodd" d="M11.7617 16.7563C14.3399 16.7499 16.918 16.7563 19.4961 16.7755C20.3381 17.0095 20.6271 17.4769 20.3632 18.1777C20.1839 18.4784 19.8948 18.664 19.4961 18.7347C16.9179 18.7603 14.3398 18.7603 11.7617 18.7347C10.9225 18.479 10.6491 17.9988 10.9414 17.2941C11.14 17.035 11.4135 16.8557 11.7617 16.7563Z" fill="white"/>
</g>
</g>
</svg>
