<svg width="9" height="10" viewBox="0 0 9 10" fill="none" xmlns="http://www.w3.org/2000/svg">
<path id="Vector" d="M5.70916 8.23133C5.70924 8.47263 5.61811 8.70504 5.45403 8.88197C5.28996 9.0589 5.06507 9.16728 4.82445 9.18538L4.75272 9.18777H3.79628C3.55498 9.18785 3.32257 9.09671 3.14563 8.93264C2.9687 8.76857 2.86032 8.54368 2.84223 8.30306L2.83983 8.23133H5.70916ZM4.2745 0.101563C5.14246 0.101548 5.9765 0.438658 6.60068 1.04178C7.22486 1.64491 7.59038 2.46689 7.62014 3.33434L7.62205 3.44911V5.24914L8.49337 6.99178C8.53139 7.06781 8.55042 7.15193 8.54883 7.23693C8.54723 7.32193 8.52506 7.40528 8.48421 7.47984C8.44336 7.5544 8.38505 7.61794 8.31426 7.66503C8.24348 7.71213 8.16234 7.74136 8.07779 7.75024L8.0228 7.7531H0.526199C0.441154 7.75313 0.357371 7.73253 0.282029 7.69309C0.206687 7.65364 0.142034 7.59651 0.0936081 7.5266C0.0451825 7.45668 0.0144291 7.37607 0.00398328 7.29167C-0.00646257 7.20727 0.0037106 7.1216 0.033631 7.04199L0.0556292 6.99178L0.926949 5.24914V3.44911C0.926949 2.56129 1.27964 1.70982 1.90742 1.08204C2.53521 0.45425 3.38667 0.101563 4.2745 0.101563Z" fill="white"/>
</svg>
