<svg xmlns="http://www.w3.org/2000/svg" width="23" height="23" viewBox="0 0 23 23" fill="none">
  <path d="M11.5 4.3125C6.70792 4.3125 2.61583 7.29292 0.957916 11.5C2.61583 15.7071 6.70792 18.6875 11.5 18.6875C16.2921 18.6875 20.3842 15.7071 22.0421 11.5C20.3842 7.29292 16.2921 4.3125 11.5 4.3125ZM11.5 16.2917C8.28417 16.2917 5.70833 13.7158 5.70833 11.5C5.70833 9.28417 8.28417 6.70833 11.5 6.70833C14.7158 6.70833 17.2917 9.28417 17.2917 11.5C17.2917 13.7158 14.7158 16.2917 11.5 16.2917ZM11.5 8.625C9.73958 8.625 8.29167 10.0729 8.29167 11.8333C8.29167 13.5938 9.73958 15.0417 11.5 15.0417C13.2604 15.0417 14.7083 13.5938 14.7083 11.8333C14.7083 10.0729 13.2604 8.625 11.5 8.625Z" fill="#A7A7A7"/>
</svg>
