<svg width="23" height="23" viewBox="0 0 23 23" fill="none" xmlns="http://www.w3.org/2000/svg">
<g id="mdi:hide">
<path id="Vector" d="M11.3358 8.625L14.3737 11.6533V11.5C14.3737 10.7375 14.0708 10.0062 13.5316 9.46707C12.9925 8.9279 12.2612 8.625 11.4987 8.625H11.3358ZM7.21495 9.39167L8.70037 10.8771C8.65245 11.0783 8.6237 11.2796 8.6237 11.5C8.6237 12.2625 8.9266 12.9938 9.46577 13.5329C10.0049 14.0721 10.7362 14.375 11.4987 14.375C11.7095 14.375 11.9204 14.3463 12.1216 14.2983L13.607 15.7837C12.9649 16.1 12.2558 16.2917 11.4987 16.2917C10.2279 16.2917 9.00909 15.7868 8.11048 14.8882C7.21187 13.9896 6.70703 12.7708 6.70703 11.5C6.70703 10.7429 6.8987 10.0338 7.21495 9.39167ZM1.91536 4.09208L4.10036 6.27708L4.53161 6.70833C2.95036 7.95417 1.70453 9.58333 0.957031 11.5C2.61495 15.7071 6.70703 18.6875 11.4987 18.6875C12.9841 18.6875 14.4024 18.4 15.6962 17.8825L16.1083 18.285L18.9066 21.0833L20.1237 19.8663L3.13245 2.875M11.4987 6.70833C12.7695 6.70833 13.9883 7.21317 14.8869 8.11178C15.7855 9.01039 16.2904 10.2292 16.2904 11.5C16.2904 12.1133 16.1658 12.7075 15.9454 13.2442L18.7533 16.0521C20.1908 14.8542 21.3408 13.2825 22.0404 11.5C20.3824 7.29292 16.2904 4.3125 11.4987 4.3125C10.157 4.3125 8.87286 4.55208 7.66536 4.98333L9.74495 7.04375C10.2912 6.83292 10.8758 6.70833 11.4987 6.70833Z" fill="#A7A7A7"/>
</g>
</svg>
